<svg id="Layer_1" data-name="Layer 1" xmlns="http://www.w3.org/2000/svg" viewBox="0 0 250.17 229.31"><defs><style>.cls-1{fill:#080404;stroke:#9d9d9c;stroke-miterlimit:10;stroke-width:0.5px;}</style></defs><polygon class="cls-1" points="249.09 112.45 249.07 112.45 248.8 112.6 248.77 112.6 248 113 239.48 117.36 237.83 118.21 233.29 120.53 230.97 121.73 230.58 121.92 230.37 122.03 230.23 122.1 230.07 122.18 226.06 124.24 220.48 127.1 214.29 130.27 211.96 131.46 211.58 131.66 211.37 131.77 211.22 131.84 211.06 131.92 210.76 132.07 209.77 132.58 201.47 136.84 192.95 141.2 192.36 141.51 192.06 141.66 192.05 141.66 186.24 144.64 182.46 146.57 179 148.35 173.57 151.13 173.36 151.24 173.22 151.32 173.06 151.4 172.76 151.55 171.98 151.95 167.23 154.38 163.46 156.31 162.7 156.7 155.47 160.41 154.94 160.68 154.35 160.98 154.34 160.98 154.2 161.05 154.04 161.13 143.7 166.44 139.17 168.75 135.93 170.41 135.55 170.61 135.34 170.72 135.2 170.79 135.04 170.87 134.74 171.02 134.73 171.02 133.96 171.42 131.93 172.46 125.45 175.79 120.16 178.49 116.93 180.15 116.54 180.34 116.34 180.46 116.33 180.46 116.19 180.53 116.03 180.61 115.63 180.81 108.4 184.51 106.43 185.52 97.92 189.89 97.54 190.08 97.33 190.19 97.19 190.26 97.03 190.35 96.73 190.5 96.63 190.55 95.95 190.9 92.1 192.86 87.44 195.26 84.87 196.58 78.92 199.62 78.53 199.82 78.32 199.93 78.18 200 78.02 200.08 78.01 200.08 73.11 202.6 68.56 204.93 68.42 205 61.34 208.63 59.91 209.36 59.32 209.67 59.17 209.74 59.01 209.82 58.71 209.97 58.66 209.98 57.93 210.37 49.58 214.65 49.42 214.74 46.35 216.31 45.04 216.98 42.4 218.33 40.52 219.29 40.31 219.41 40.17 219.48 40.01 219.56 37.8 220.69 31.11 224.12 30.41 224.48 26.04 226.72 23.3 228.12 21.89 228.84 21.52 229.03 21.3 228.92 12.92 224.84 2.7 219.86 2.63 219.82 2.62 219.82 2.32 219.67 2.23 210.53 2.14 201.09 2.14 200.87 2.05 191.43 1.96 181.99 1.95 181.77 1.86 172.33 1.65 172.33 1.55 162.78 16.26 169.96 16.27 169.96 20.74 172.14 20.74 172.15 20.75 172.15 25.53 174.49 39.94 181.51 25.67 188.82 25.7 191.2 25.72 193.59 25.86 207.62 30.22 205.37 30.36 205.3 37.62 201.59 39.82 200.46 40.13 200.61 78.13 181.13 78.14 181.14 78.14 181.13 97.13 171.39 97.15 171.39 116.15 161.66 135.15 151.92 135.16 151.92 154.16 142.19 154.16 142.18 154.17 142.18 173.17 132.44 192.17 122.71 192.18 122.71 192.18 122.7 211.17 112.97 211.18 112.97 211.18 112.67 211.39 112.56 211.18 112.46 211.03 112.38 204.07 108.99 202.79 108.36 192.5 103.34 191.99 103.1 191.98 103.1 191.83 103.02 190.37 102.3 183.59 99 180.33 97.4 178.49 96.5 173.85 94.24 173.83 94.23 173.31 93.98 173.3 93.98 173 93.82 172.79 93.73 172.65 93.66 166.6 90.71 164.41 89.64 156.56 85.81 154.72 84.91 154.19 84.65 154.12 84.62 153.81 84.46 153.6 84.35 153.59 84.35 153.46 84.3 145.22 80.28 142.84 79.11 136.24 75.9 135.46 75.51 135.43 75.51 135 75.29 134.93 75.26 134.92 75.26 134.61 75.1 134.4 75 134.27 74.93 132.8 74.22 130.96 73.33 126.02 70.92 119.07 67.52 115.81 65.94 115.73 65.9 115.21 65.64 115.2 65.64 109.02 62.62 107.19 61.73 106.82 61.55 97.85 57.17 97.06 56.79 97.05 56.78 96.61 56.57 96.54 56.53 96.53 56.53 96.22 56.38 96.01 56.28 95.87 56.21 95.31 55.94 87.63 52.19 85.27 51.04 83.43 50.14 77.42 47.21 77.34 47.17 77.03 47.02 76.82 46.92 76.68 46.85 71.55 44.35 68.44 42.83 61.51 39.45 59.66 38.55 59.46 38.45 58.67 38.07 58.65 38.06 58.15 37.81 58.14 37.81 57.84 37.65 57.62 37.56 57.48 37.49 49.24 33.47 47.79 32.75 39.02 28.48 38.96 28.44 38.95 28.44 38.64 28.29 38.43 28.19 38.29 28.13 37.74 27.85 35.9 26.96 30.04 24.11 24.02 21.17 24.03 21.68 24.03 21.69 24.17 36.02 24.19 38.4 24.21 40.27 30.23 43.21 36.09 46.06 38.62 47.29 38.62 47.81 38.63 47.81 57.82 57.17 77.01 66.53 77.01 66.54 96.2 75.89 96.2 75.9 96.21 75.9 115.4 85.26 134.58 94.62 134.6 94.62 153.79 103.98 172.68 113.2 172.69 113.2 172.98 113.34 172.98 113.35 153.98 123.08 153.97 123.08 153.97 123.09 134.98 132.82 134.97 132.82 115.96 142.56 115.96 142.26 115.66 142.41 115.96 142.56 96.95 152.3 77.95 162.03 58.76 152.67 39.56 143.31 20.37 133.95 39.47 133.76 58.57 133.57 77.67 133.39 96.17 133.2 96.77 133.2 115.77 123.46 115.78 123.46 134.77 113.72 134.78 113.72 134.78 113.41 134.98 113.31 134.78 113.2 134.77 113.2 134.63 113.13 131.34 111.54 127.67 109.74 126.38 109.11 119.45 105.73 116.18 104.14 116.09 104.1 115.79 103.95 115.58 103.84 115.44 103.77 107.57 99.94 107.2 99.75 103.92 98.15 98.22 95.37 97.43 94.99 97.42 94.98 96.99 94.77 96.91 94.73 96.6 94.58 96.39 94.48 96.25 94.41 95.68 94.13 88.01 90.39 83.81 88.34 80.16 86.56 77.8 85.41 77.72 85.37 77.4 85.21 77.19 85.12 77.05 85.05 71.93 82.55 68.81 81.03 60.04 76.74 59.84 76.65 59.05 76.26 58.6 76.05 58.52 76.01 58.51 76.01 58.21 75.85 58 75.75 57.86 75.69 56.4 74.97 49.62 71.67 48.16 70.95 39.4 66.68 39.33 66.65 39.32 66.65 39.02 66.49 38.81 66.39 36.27 65.16 32.63 63.37 30.43 62.31 30.42 62.31 24.4 59.36 21.45 57.92 20.67 57.54 20.66 57.53 20.14 57.29 20.13 57.29 19.82 57.13 19.61 57.03 11.23 52.94 8.87 51.79 1.01 47.95 0.94 47.92 0.63 47.77 0.54 38.63 0.45 29.19 0.45 28.97 0.36 19.53 0.27 10.09 0.26 9.87 19.05 0.25 19.06 0.25 57.44 18.97 76.63 28.33 76.63 28.34 76.64 28.34 95.82 37.69 95.83 37.7 115.03 47.06 134.21 56.42 134.23 56.42 153.41 65.78 153.41 65.79 153.42 65.79 172.59 75.14 172.61 75.15 191.79 84.51 191.8 84.51 210.98 93.87 211 93.87 230.19 103.23 249.09 112.45"/></svg>